<svg xmlns="http://www.w3.org/2000/svg" version="1.1" xmlns:xlink="http://www.w3.org/1999/xlink" xmlns:svgjs="http://svgjs.dev/svgjs" width="2000" height="606" viewBox="0 0 2000 606"><g transform="matrix(1,0,0,1,-1.2121212121212466,0.2944729708392515)"><svg viewBox="0 0 396 120" data-background-color="#ffffff" preserveAspectRatio="xMidYMid meet" height="606" width="2000" xmlns="http://www.w3.org/2000/svg" xmlns:xlink="http://www.w3.org/1999/xlink"><g id="tight-bounds" transform="matrix(1,0,0,1,0.2400000000000091,-0.05831147937411174)"><svg viewBox="0 0 395.52 120.11662295874821" height="120.11662295874821" width="395.52"><g><svg viewBox="0 0 714.2064591551483 216.89944369195376" height="120.11662295874821" width="395.52"><g><rect width="11.516255282143858" height="216.89944369195376" x="425.66726513650224" y="0" fill="#374151" opacity="1" stroke-width="0" stroke="transparent" fill-opacity="1" class="rect-qz-0" data-fill-palette-color="primary" rx="1%" id="qz-0" data-palette-color="#374151"></rect></g><g transform="matrix(1,0,0,1,0,18.074953640996142)"><svg viewBox="0 0 395.52 180.74953640996148" height="180.74953640996148" width="395.52"><g id="textblocktransform"><svg viewBox="0 0 395.52 180.74953640996148" height="180.74953640996148" width="395.52" id="textblock"><g><svg viewBox="0 0 395.52 127.70152466367713" height="127.70152466367713" width="395.52"><g transform="matrix(1,0,0,1,0,0)"><svg width="395.52" viewBox="0.9 -35.5 111.49 36" height="127.70152466367713" data-palette-color="#374151"><path d="M5.85 0L5.85-1.5 24.25-1.5 13.65-30.65 2.5 0 0.9 0 13.65-35.05 26.4 0 5.85 0ZM46.65-27.48Q44.95-28 42.45-28 39.95-28 38.25-27.48 36.55-26.95 35.12-25.53 33.7-24.1 33-21.38 32.3-18.65 32.3-14.5 32.3-10.35 33-7.63 33.7-4.9 35.12-3.48 36.55-2.05 38.25-1.53 39.95-1 42.45-1 44.95-1 46.65-1.53 48.35-2.05 49.77-3.48 51.2-4.9 51.9-7.63 52.6-10.35 52.6-14.5 52.6-18.65 51.9-21.38 51.2-24.1 49.77-25.53 48.35-26.95 46.65-27.48ZM51.4-3.05Q48.7 0.5 42.45 0.5 36.2 0.5 33.5-3.05 30.8-6.6 30.8-14.5 30.8-22.4 33.5-25.95 36.2-29.5 42.45-29.5 48.7-29.5 51.4-25.95 54.1-22.4 54.1-14.5 54.1-6.6 51.4-3.05ZM67.34 0L67.34 0 62.55 0 62.55-35 67.34-35Q74.55-35 79.55-29.7 84.55-24.4 84.55-17.5 84.55-10.6 79.55-5.3 74.55 0 67.34 0ZM64.05-1.5L67.34-1.5Q73.89-1.5 78.47-6.33 83.05-11.15 83.05-17.5 83.05-23.85 78.47-28.68 73.89-33.5 67.34-33.5L67.34-33.5 64.05-33.5 64.05-1.5ZM91.14-26.35L91.14-26.35Q91.14-31.2 93.59-33.35 96.04-35.5 101.54-35.5L101.54-35.5Q105.39-35.5 107.74-33.5 110.09-31.5 111.14-27.4L111.14-27.4 106.49-23.9 104.04-23.9 109.44-27.95Q108.39-31.3 106.42-32.65 104.44-34 101.54-34L101.54-34Q99.54-34 98.17-33.75 96.79-33.5 95.42-32.77 94.04-32.05 93.34-30.45 92.64-28.85 92.64-26.35L92.64-26.35Q92.64-24.15 94.67-22.45 96.69-20.75 99.59-19.55 102.49-18.35 105.42-17.1 108.34-15.85 110.37-13.9 112.39-11.95 112.39-9.4L112.39-9.4Q112.39-4.4 109.92-1.95 107.44 0.5 101.44 0.5L101.44 0.5Q96.54 0.5 93.74-1.48 90.94-3.45 89.89-7.6L89.89-7.6 91.29-8.2Q92.29-4.15 94.72-2.58 97.14-1 101.44-1L101.44-1Q106.24-1 108.57-2.85 110.89-4.7 110.89-9.4L110.89-9.4Q110.89-11.6 108.87-13.3 106.84-15 103.92-16.2 100.99-17.4 98.09-18.65 95.19-19.9 93.17-21.85 91.14-23.8 91.14-26.35Z" opacity="1" transform="matrix(1,0,0,1,0,0)" fill="#374151" class="wordmark-text-0" data-fill-palette-color="primary" id="text-0"></path></svg></g></svg></g><g transform="matrix(1,0,0,1,19.77600000000001,157.8487898001794)"><svg viewBox="0 0 375.74399999999997 22.90074660978211" height="22.90074660978211" width="375.74399999999997"><g transform="matrix(1,0,0,1,0,0)"><svg width="375.74399999999997" viewBox="0.43 -39.33 656.24 40.01" height="22.90074660978211" data-palette-color="#374151"><path d="M23.45 0L21.05-8.3 8.72-8.3 6.33 0 0.43 0 11.4-34.5 18.6-34.5 29.6 0 23.45 0ZM14.9-30L9.93-12.78 19.83-12.78 14.9-30ZM49.95-24.23L49.95-37.63 55.55-37 55.55 0 50.62 0 50.22-3.25Q48.87-1.38 47-0.35 45.12 0.68 42.8 0.68L42.8 0.68Q39.4 0.68 37.2-1.06 35-2.8 33.94-5.94 32.87-9.08 32.87-13.2L32.87-13.2Q32.87-17.23 34.12-20.36 35.37-23.5 37.7-25.3 40.02-27.1 43.3-27.1L43.3-27.1Q45.37-27.1 47.02-26.36 48.67-25.63 49.95-24.23L49.95-24.23ZM44.77-22.8L44.77-22.8Q41.95-22.8 40.37-20.46 38.8-18.13 38.8-13.2L38.8-13.2Q38.8-9.83 39.45-7.71 40.1-5.6 41.32-4.61 42.55-3.63 44.27-3.63L44.27-3.63Q46.17-3.63 47.57-4.73 48.97-5.83 49.95-7.38L49.95-7.38 49.95-19.88Q48.97-21.28 47.67-22.04 46.37-22.8 44.77-22.8ZM81.84-26.4L87.57-26.4 78.27 0 71.72 0 62.42-26.4 68.42-26.4 75.12-4.65 81.84-26.4ZM116.59-11.4L99.09-11.4Q99.27-8.7 100.24-6.99 101.22-5.28 102.81-4.48 104.39-3.68 106.29-3.68L106.29-3.68Q108.24-3.68 109.89-4.28 111.54-4.88 113.22-5.98L113.22-5.98 115.64-2.63Q113.79-1.13 111.32-0.23 108.84 0.68 106.02 0.68L106.02 0.68Q101.92 0.68 99.08-1.07 96.24-2.83 94.77-5.95 93.29-9.08 93.29-13.18L93.29-13.18Q93.29-17.15 94.74-20.29 96.19-23.43 98.89-25.26 101.59-27.1 105.34-27.1L105.34-27.1Q108.87-27.1 111.41-25.5 113.94-23.9 115.33-20.96 116.72-18.03 116.72-13.9L116.72-13.9Q116.72-13.23 116.68-12.56 116.64-11.9 116.59-11.4L116.59-11.4ZM105.39-22.95L105.39-22.95Q102.77-22.95 101.06-21.08 99.34-19.2 99.07-15.23L99.07-15.23 111.29-15.23Q111.22-18.95 109.71-20.95 108.19-22.95 105.39-22.95ZM130.04 0L124.44 0 124.44-26.4 129.27-26.4 129.69-22.98Q131.34-25 133.59-26.05 135.84-27.1 138.22-27.1L138.22-27.1Q141.92-27.1 143.75-25.04 145.59-22.98 145.59-19.25L145.59-19.25 145.59 0 139.99 0 139.99-16.48Q139.99-18.78 139.72-20.18 139.44-21.58 138.63-22.2 137.81-22.83 136.22-22.83L136.22-22.83Q134.94-22.83 133.79-22.28 132.64-21.73 131.69-20.84 130.74-19.95 130.04-18.95L130.04-18.95 130.04 0ZM174.46-5.1L176.49-1.4Q175.04-0.48 173.01 0.1 170.99 0.68 168.79 0.68L168.79 0.68Q164.19 0.68 161.8-1.71 159.41-4.1 159.41-8L159.41-8 159.41-22.33 153.54-22.33 153.54-26.4 159.41-26.4 159.41-32.3 165.01-32.98 165.01-26.4 173.91-26.4 173.29-22.33 165.01-22.33 165.01-8.05Q165.01-5.93 166.08-4.89 167.14-3.85 169.56-3.85L169.56-3.85Q171.01-3.85 172.24-4.2 173.46-4.55 174.46-5.1L174.46-5.1ZM225.01-27.1L225.01-27.1Q228.88-27.1 231.53-25.38 234.18-23.65 235.55-20.55 236.91-17.45 236.91-13.25L236.91-13.25Q236.91-9.08 235.52-5.94 234.13-2.8 231.47-1.06 228.81 0.68 224.98 0.68L224.98 0.68Q221.16 0.68 218.5-1.01 215.83-2.7 214.45-5.83 213.06-8.95 213.06-13.2L213.06-13.2Q213.06-17.32 214.45-20.45 215.83-23.58 218.51-25.34 221.18-27.1 225.01-27.1ZM225.01-22.75L225.01-22.75Q221.98-22.75 220.46-20.44 218.93-18.13 218.93-13.2L218.93-13.2Q218.93-8.3 220.45-5.98 221.96-3.65 224.98-3.65L224.98-3.65Q228.01-3.65 229.52-5.98 231.03-8.3 231.03-13.25L231.03-13.25Q231.03-18.13 229.53-20.44 228.03-22.75 225.01-22.75ZM260.48-37.63L260.48-37.63Q262.91-37.63 264.82-37.21 266.73-36.8 268.36-36.1L268.36-36.1 266.71-32.23Q265.38-32.77 263.94-33.02 262.5-33.27 261.03-33.27L261.03-33.27Q258.43-33.27 257.18-32.29 255.93-31.3 255.93-29.18L255.93-29.18 255.93-24.5 264.75-24.5 264.16-20.38 255.93-20.38 255.93 0 250.36 0 250.36-20.38 244.36-20.38 244.36-24.5 250.36-24.5 250.36-29.23Q250.36-31.73 251.62-33.61 252.88-35.5 255.16-36.56 257.43-37.63 260.48-37.63ZM321.93-17.43L321.93-17.43Q321.93-21.55 321.11-24.05 320.3-26.55 318.94-27.85 317.58-29.15 315.91-29.6 314.25-30.05 312.53-30.05L312.53-30.05 309.35-30.05 309.35-4.4 312.55-4.4Q314.35-4.4 316.03-4.98 317.7-5.55 319.04-6.98 320.38-8.4 321.15-10.94 321.93-13.48 321.93-17.43ZM328.03-17.43L328.03-17.43Q328.03-12.08 326.63-8.65 325.23-5.23 322.9-3.35 320.58-1.48 317.73-0.74 314.88 0 312 0L312 0 303.55 0 303.55-34.5 311.43-34.5Q314.58-34.5 317.54-33.83 320.5-33.15 322.86-31.33 325.23-29.5 326.63-26.15 328.03-22.8 328.03-17.43ZM354.6-18.25L354.6-6.48Q354.6-4.93 355.07-4.21 355.55-3.5 356.6-3.15L356.6-3.15 355.35 0.65Q353.4 0.43 352-0.43 350.6-1.28 349.87-3L349.87-3Q348.42-1.18 346.2-0.25 343.97 0.68 341.45 0.68L341.45 0.68Q337.45 0.68 335.11-1.59 332.77-3.85 332.77-7.53L332.77-7.53Q332.77-11.7 336.02-13.95 339.27-16.2 345.32-16.2L345.32-16.2 349.1-16.2 349.1-17.93Q349.1-20.48 347.56-21.6 346.02-22.73 343.22-22.73L343.22-22.73Q341.92-22.73 340.07-22.39 338.22-22.05 336.2-21.35L336.2-21.35 334.82-25.3Q337.3-26.23 339.67-26.66 342.05-27.1 344.07-27.1L344.07-27.1Q349.37-27.1 351.99-24.75 354.6-22.4 354.6-18.25L354.6-18.25ZM343.15-3.45L343.15-3.45Q344.85-3.45 346.47-4.35 348.1-5.25 349.1-6.88L349.1-6.88 349.1-12.7 346-12.7Q342.05-12.7 340.35-11.39 338.65-10.08 338.65-7.78L338.65-7.78Q338.65-5.68 339.79-4.56 340.92-3.45 343.15-3.45ZM384.45-5.1L386.47-1.4Q385.02-0.48 383 0.1 380.97 0.68 378.77 0.68L378.77 0.68Q374.17 0.68 371.78-1.71 369.4-4.1 369.4-8L369.4-8 369.4-22.33 363.52-22.33 363.52-26.4 369.4-26.4 369.4-32.3 375-32.98 375-26.4 383.9-26.4 383.27-22.33 375-22.33 375-8.05Q375-5.93 376.06-4.89 377.12-3.85 379.55-3.85L379.55-3.85Q381-3.85 382.22-4.2 383.45-4.55 384.45-5.1L384.45-5.1ZM414.59-18.25L414.59-6.48Q414.59-4.93 415.07-4.21 415.54-3.5 416.59-3.15L416.59-3.15 415.34 0.65Q413.39 0.43 411.99-0.43 410.59-1.28 409.87-3L409.87-3Q408.42-1.18 406.19-0.25 403.97 0.68 401.44 0.68L401.44 0.68Q397.44 0.68 395.11-1.59 392.77-3.85 392.77-7.53L392.77-7.53Q392.77-11.7 396.02-13.95 399.27-16.2 405.32-16.2L405.32-16.2 409.09-16.2 409.09-17.93Q409.09-20.48 407.56-21.6 406.02-22.73 403.22-22.73L403.22-22.73Q401.92-22.73 400.07-22.39 398.22-22.05 396.19-21.35L396.19-21.35 394.82-25.3Q397.29-26.23 399.67-26.66 402.04-27.1 404.07-27.1L404.07-27.1Q409.37-27.1 411.98-24.75 414.59-22.4 414.59-18.25L414.59-18.25ZM403.14-3.45L403.14-3.45Q404.84-3.45 406.47-4.35 408.09-5.25 409.09-6.88L409.09-6.88 409.09-12.7 405.99-12.7Q402.04-12.7 400.34-11.39 398.64-10.08 398.64-7.78L398.64-7.78Q398.64-5.68 399.78-4.56 400.92-3.45 403.14-3.45ZM477.39-9.75L477.39-9.75Q477.39-6.7 475.83-4.34 474.26-1.98 471.33-0.65 468.39 0.68 464.24 0.68L464.24 0.68Q460.04 0.68 456.88-0.59 453.71-1.85 451.54-3.95L451.54-3.95 454.71-7.5Q456.56-5.83 458.89-4.86 461.21-3.9 464.21-3.9L464.21-3.9Q466.16-3.9 467.79-4.51 469.41-5.13 470.39-6.36 471.36-7.6 471.36-9.47L471.36-9.47Q471.36-11 470.74-12.05 470.11-13.1 468.58-13.95 467.04-14.8 464.29-15.6L464.29-15.6Q460.64-16.7 458.16-18.05 455.69-19.4 454.43-21.29 453.16-23.18 453.16-25.88L453.16-25.88Q453.16-28.68 454.7-30.78 456.24-32.88 458.93-34.04 461.61-35.2 465.01-35.2L465.01-35.2Q468.76-35.2 471.56-34.13 474.36-33.05 476.56-31.05L476.56-31.05 473.51-27.6Q471.69-29.2 469.6-29.93 467.51-30.65 465.36-30.65L465.36-30.65Q463.61-30.65 462.19-30.15 460.76-29.65 459.94-28.68 459.11-27.7 459.11-26.2L459.11-26.2Q459.11-24.88 459.85-23.93 460.59-22.98 462.35-22.16 464.11-21.35 467.19-20.43L467.19-20.43Q470.09-19.58 472.4-18.32 474.71-17.07 476.05-15.05 477.39-13.03 477.39-9.75ZM497.14-3.93L497.14-3.93Q498.99-3.93 500.59-4.56 502.19-5.2 503.64-6.23L503.64-6.23 506.24-2.63Q504.51-1.15 502.05-0.24 499.59 0.68 496.96 0.68L496.96 0.68Q492.91 0.68 490.04-1.04 487.16-2.75 485.64-5.85 484.11-8.95 484.11-13.08L484.11-13.08Q484.11-17.1 485.65-20.26 487.19-23.43 490.09-25.26 492.99-27.1 497.06-27.1L497.06-27.1Q499.76-27.1 502.04-26.3 504.31-25.5 506.21-23.93L506.21-23.93 503.64-20.4Q502.09-21.48 500.47-22.04 498.86-22.6 497.16-22.6L497.16-22.6Q494.04-22.6 492.05-20.3 490.06-18 490.06-13.08L490.06-13.08Q490.06-9.78 490.97-7.76 491.89-5.75 493.49-4.84 495.09-3.93 497.14-3.93ZM515.58-26.4L528.83-26.4 528.83-4.1 536.01-4.1 536.01 0 515.33 0 515.33-4.1 523.23-4.1 523.23-22.3 515.58-22.3 515.58-26.4ZM524.93-39.33L524.93-39.33Q526.58-39.33 527.6-38.33 528.61-37.33 528.61-35.83L528.61-35.83Q528.61-34.33 527.6-33.3 526.58-32.27 524.93-32.27L524.93-32.27Q523.33-32.27 522.31-33.3 521.28-34.33 521.28-35.83L521.28-35.83Q521.28-37.33 522.31-38.33 523.33-39.33 524.93-39.33ZM566.55-11.4L549.05-11.4Q549.23-8.7 550.2-6.99 551.18-5.28 552.77-4.48 554.35-3.68 556.25-3.68L556.25-3.68Q558.2-3.68 559.85-4.28 561.5-4.88 563.18-5.98L563.18-5.98 565.6-2.63Q563.75-1.13 561.28-0.23 558.8 0.68 555.98 0.68L555.98 0.68Q551.88 0.68 549.04-1.07 546.2-2.83 544.73-5.95 543.25-9.08 543.25-13.18L543.25-13.18Q543.25-17.15 544.7-20.29 546.15-23.43 548.85-25.26 551.55-27.1 555.3-27.1L555.3-27.1Q558.83-27.1 561.37-25.5 563.9-23.9 565.29-20.96 566.68-18.03 566.68-13.9L566.68-13.9Q566.68-13.23 566.64-12.56 566.6-11.9 566.55-11.4L566.55-11.4ZM555.35-22.95L555.35-22.95Q552.73-22.95 551.02-21.08 549.3-19.2 549.03-15.23L549.03-15.23 561.25-15.23Q561.18-18.95 559.67-20.95 558.15-22.95 555.35-22.95ZM580 0L574.4 0 574.4-26.4 579.23-26.4 579.65-22.98Q581.3-25 583.55-26.05 585.8-27.1 588.18-27.1L588.18-27.1Q591.88-27.1 593.71-25.04 595.55-22.98 595.55-19.25L595.55-19.25 595.55 0 589.95 0 589.95-16.48Q589.95-18.78 589.68-20.18 589.4-21.58 588.59-22.2 587.78-22.83 586.18-22.83L586.18-22.83Q584.9-22.83 583.75-22.28 582.6-21.73 581.65-20.84 580.7-19.95 580-18.95L580-18.95 580 0ZM617.12-3.93L617.12-3.93Q618.97-3.93 620.57-4.56 622.17-5.2 623.62-6.23L623.62-6.23 626.22-2.63Q624.5-1.15 622.04-0.24 619.57 0.68 616.95 0.68L616.95 0.68Q612.9 0.68 610.02-1.04 607.15-2.75 605.62-5.85 604.1-8.95 604.1-13.08L604.1-13.08Q604.1-17.1 605.64-20.26 607.17-23.43 610.07-25.26 612.97-27.1 617.05-27.1L617.05-27.1Q619.75-27.1 622.02-26.3 624.3-25.5 626.2-23.93L626.2-23.93 623.62-20.4Q622.07-21.48 620.46-22.04 618.85-22.6 617.15-22.6L617.15-22.6Q614.02-22.6 612.04-20.3 610.05-18 610.05-13.08L610.05-13.08Q610.05-9.78 610.96-7.76 611.87-5.75 613.47-4.84 615.07-3.93 617.12-3.93ZM656.55-11.4L639.05-11.4Q639.22-8.7 640.2-6.99 641.17-5.28 642.76-4.48 644.35-3.68 646.25-3.68L646.25-3.68Q648.2-3.68 649.85-4.28 651.5-4.88 653.17-5.98L653.17-5.98 655.6-2.63Q653.75-1.13 651.27-0.23 648.8 0.68 645.97 0.68L645.97 0.68Q641.87 0.68 639.03-1.07 636.2-2.83 634.72-5.95 633.25-9.08 633.25-13.18L633.25-13.18Q633.25-17.15 634.7-20.29 636.15-23.43 638.85-25.26 641.55-27.1 645.3-27.1L645.3-27.1Q648.82-27.1 651.36-25.5 653.9-23.9 655.28-20.96 656.67-18.03 656.67-13.9L656.67-13.9Q656.67-13.23 656.63-12.56 656.6-11.9 656.55-11.4L656.55-11.4ZM645.35-22.95L645.35-22.95Q642.72-22.95 641.01-21.08 639.3-19.2 639.02-15.23L639.02-15.23 651.25-15.23Q651.17-18.95 649.66-20.95 648.15-22.95 645.35-22.95Z" opacity="1" transform="matrix(1,0,0,1,0,0)" fill="#374151" class="slogan-text-1" data-fill-palette-color="secondary" id="text-1"></path></svg></g></svg></g></svg></g></svg></g><g transform="matrix(1,0,0,1,467.33078555514834,42.90421388950362)"><svg viewBox="0 0 246.87567359999997 131.09101591294652" height="131.09101591294652" width="246.87567359999997"><g><svg xmlns="http://www.w3.org/2000/svg" xmlns:xlink="http://www.w3.org/1999/xlink" version="1.1" x="0" y="0" viewBox="31.427 40.138 37.145 19.723999999999997" enable-background="new 0 0 100 100" xml:space="preserve" height="131.09101591294652" width="246.87567359999997" class="icon-icon-0" data-fill-palette-color="accent" id="icon-0"><path d="M41.29 40.138l-9.863 9.861 9.863 9.862 2.557-2.557-7.305-7.306 7.305-7.303L41.29 40.138zM58.709 40.138l-2.557 2.558 7.305 7.303-7.305 7.306 2.557 2.557 9.863-9.862L58.709 40.138z" fill="#374151" data-fill-palette-color="accent"></path></svg></g></svg></g></svg></g><defs></defs></svg><rect width="395.52" height="120.11662295874821" fill="none" stroke="none" visibility="hidden"></rect></g></svg></g></svg>